# Blender 4.1.1
# www.blender.org
mtllib boat.mtl
o boat
v 0.000000 -0.297650 4.917418
v 0.000000 0.192542 -5.578939
v -1.436430 0.275631 -2.631136
v -1.618258 -0.007678 4.211367
v -1.186145 0.984806 -2.600526
v -0.922487 -0.981927 -2.503572
v -1.225521 1.006546 4.216551
v -1.332199 -0.885059 3.621382
v 0.000000 -1.064099 -4.281671
v 0.000000 0.974037 5.271791
v 0.000000 -1.196962 4.135687
v 0.000000 0.986176 -5.854790
v -1.061125 -0.992309 -0.015743
v -1.192554 1.005808 -0.014490
v -1.485447 0.232788 -0.015743
v 0.000000 -1.289145 -0.015743
v -1.697376 1.000869 4.546365
v 0.000000 1.000561 4.640904
v -1.720026 1.013936 -0.017695
v -1.706051 0.972268 -2.719816
v 0.000000 1.004808 -5.032158
v 0.000000 -0.262457 -0.014846
v 0.000000 -0.261220 4.674150
v 0.000000 0.032849 -5.289054
v -1.225706 0.189896 -0.013749
v -1.252437 0.190665 4.237156
v -1.218509 0.168891 -2.606931
v -1.759211 0.633664 4.451746
v 0.000000 0.688435 -5.792905
v 0.000000 0.498250 5.225242
v -1.696762 0.713239 -2.705857
v -1.725484 0.730587 -0.017697
v 0.000000 0.688071 -5.681936
v 0.000000 0.494197 4.994889
v -1.452776 0.707303 -2.650604
v -1.476361 0.704430 -0.015743
v -1.545029 0.612171 4.324035
v -1.185752 0.712851 -2.600338
v 0.000000 0.871525 -5.031859
v -1.225707 0.734589 4.216084
v -1.192185 0.733853 -0.014192
v 0.000000 0.579960 4.641203
v -1.253136 0.705437 4.236590
v 0.000000 0.534918 4.673584
v -1.219208 0.683663 -2.607497
v 0.000000 0.857195 -5.046008
v -1.226405 0.704668 -0.014314
v -0.234546 0.673832 -5.425595
v -0.234546 1.000449 -5.425595
v -0.234546 0.796869 -5.904503
v -0.234546 1.454360 -5.852704
v 0.000000 0.796869 -5.904503
v 0.000000 1.454360 -5.852704
v 0.000000 0.673832 -5.425595
v 0.000000 1.000449 -5.425595
v -0.234546 0.065712 -5.610388
v -0.234546 0.182313 -5.435189
v 0.000000 0.065712 -5.610388
v 0.000000 0.182313 -5.435189
v -0.173422 -1.200783 -4.332181
v -0.173422 -1.038099 -4.188992
v 0.000000 -1.200783 -4.332181
v 0.000000 -1.038099 -4.188992
v -0.143146 -1.386472 0.012810
v -0.143146 -1.245520 0.007505
v 0.000000 -1.386472 0.012810
v 0.000000 -1.245520 0.007505
v -0.143146 -1.282273 4.148465
v -0.143146 -1.142859 4.127029
v 0.000000 -1.282273 4.148465
v 0.000000 -1.142859 4.127029
v -1.276832 0.587155 -2.338494
v -1.276832 0.702205 -2.338494
v -1.298979 0.702205 -2.633207
v -0.001617 0.702205 -5.191138
v -0.001617 0.587155 -2.294201
v -0.001617 0.702205 -2.294201
v 1.276832 0.587155 -2.338494
v 1.276832 0.702205 -2.338494
v 1.298979 0.702205 -2.633207
v 0.001617 0.702205 -5.191138
v 0.001617 0.587155 -2.294201
v 0.001617 0.702205 -2.294201
v -1.394782 0.436213 0.422678
v -1.394782 0.530095 0.422678
v -1.394782 0.436213 -0.458731
v -1.394782 0.530095 -0.458731
v 1.394782 0.436213 0.422678
v 1.394782 0.530095 0.422678
v 1.394782 0.436213 -0.458731
v 1.394782 0.530095 -0.458731
v -1.394782 0.436213 2.469933
v -1.394782 0.530095 2.469933
v -1.394782 0.436213 1.588524
v -1.394782 0.530095 1.588524
v 1.394782 0.436213 2.469933
v 1.394782 0.530095 2.469933
v 1.394782 0.436213 1.588524
v 1.394782 0.530095 1.588524
v -1.394782 0.530095 4.404387
v -1.394782 0.436213 3.480257
v -1.394782 0.530095 3.480257
v 1.394782 0.530095 4.404387
v 1.394782 0.436213 3.480257
v 1.394782 0.530095 3.480257
v 0.000000 0.436213 3.480257
v 0.000000 0.530095 3.480257
v 0.000000 0.530095 4.682073
v 1.436430 0.275631 -2.631136
v 1.618258 -0.007678 4.211367
v 1.186145 0.984806 -2.600526
v 0.922487 -0.981927 -2.503572
v 1.225521 1.006546 4.216551
v 1.332199 -0.885059 3.621382
v 1.061125 -0.992309 -0.015743
v 1.192554 1.005808 -0.014490
v 1.485447 0.232788 -0.015743
v 1.697376 1.000869 4.546365
v 1.720026 1.013936 -0.017695
v 1.706051 0.972268 -2.719816
v 1.225706 0.189896 -0.013749
v 1.252437 0.190665 4.237156
v 1.218509 0.168891 -2.606931
v 1.759211 0.633664 4.451746
v 1.696762 0.713239 -2.705857
v 1.725484 0.730587 -0.017697
v 1.452776 0.707303 -2.650604
v 1.476361 0.704430 -0.015743
v 1.545029 0.612171 4.324035
v 1.185752 0.712851 -2.600338
v 1.225707 0.734589 4.216084
v 1.192185 0.733853 -0.014192
v 1.253136 0.705437 4.236590
v 1.219208 0.683663 -2.607497
v 1.226405 0.704668 -0.014314
v 0.234546 0.673832 -5.425595
v 0.234546 1.000449 -5.425595
v 0.234546 0.796869 -5.904503
v 0.234546 1.454360 -5.852704
v 0.234546 0.065712 -5.610388
v 0.234546 0.182313 -5.435189
v 0.173422 -1.200783 -4.332181
v 0.173422 -1.038099 -4.188992
v 0.143146 -1.386472 0.012810
v 0.143146 -1.245520 0.007505
v 0.143146 -1.282273 4.148465
v 0.143146 -1.142859 4.127029
v 1.276832 0.587155 -2.338494
v 1.276832 0.702205 -2.338494
v 1.298979 0.702205 -2.633207
v 0.001617 0.702205 -5.191138
v 0.001617 0.587155 -2.294201
v 0.001617 0.702205 -2.294201
v -1.276832 0.587155 -2.338494
v -1.276832 0.702205 -2.338494
v -1.298979 0.702205 -2.633207
v -0.001617 0.702205 -5.191138
v -0.001617 0.587155 -2.294201
v -0.001617 0.702205 -2.294201
v 1.394782 0.436213 0.422678
v 1.394782 0.530095 0.422678
v 1.394782 0.436213 -0.458731
v 1.394782 0.530095 -0.458731
v -1.394782 0.436213 0.422678
v -1.394782 0.530095 0.422678
v -1.394782 0.436213 -0.458731
v -1.394782 0.530095 -0.458731
v 1.394782 0.436213 2.469933
v 1.394782 0.530095 2.469933
v 1.394782 0.436213 1.588524
v 1.394782 0.530095 1.588524
v -1.394782 0.436213 2.469933
v -1.394782 0.530095 2.469933
v -1.394782 0.436213 1.588524
v -1.394782 0.530095 1.588524
v 1.394782 0.530095 4.404387
v 1.394782 0.436213 3.480257
v 1.394782 0.530095 3.480257
v -1.394782 0.530095 4.404387
v -1.394782 0.436213 3.480257
v -1.394782 0.530095 3.480257
vn 0.9004 -0.3844 0.2039
vn 0.9138 -0.4062 0.0060
vn 0.8084 0.5885 0.0135
vn 0.8203 0.5453 0.1724
vn -0.0000 -0.6868 0.7269
vn -0.0000 0.5601 0.8284
vn -0.6275 0.5836 0.5155
vn -0.7370 -0.5682 0.3661
vn -0.7562 -0.6542 -0.0098
vn -0.6885 0.7252 -0.0063
vn -0.7498 0.6295 -0.2039
vn -0.7312 -0.6583 -0.1789
vn -0.6663 -0.7450 -0.0316
vn -0.9884 -0.1482 -0.0320
vn -0.9514 -0.2078 -0.2272
vn -0.6637 -0.7311 -0.1583
vn -0.0000 0.5013 -0.8653
vn -0.0000 -0.6089 -0.7933
vn -0.0000 -0.9999 -0.0115
vn -0.0000 -0.8824 0.4706
vn -0.6610 -0.7137 0.2318
vn -0.0000 -0.3977 -0.9175
vn -0.0000 -0.8310 -0.5563
vn -0.0000 -0.3997 0.9166
vn -0.8325 -0.2556 0.4915
vn 0.7392 -0.3773 -0.5579
vn 0.7491 0.4665 -0.4703
vn -0.0000 0.8002 -0.5997
vn 0.4126 0.8681 -0.2758
vn 0.7065 0.7077 -0.0000
vn 0.6250 0.7682 0.1391
vn -0.0000 0.9720 0.2351
vn -0.0000 0.9998 0.0181
vn -0.0000 0.7086 -0.7056
vn -0.0000 0.5039 0.8638
vn -0.0000 -0.5984 0.8012
vn -0.0000 -0.2907 -0.9568
vn -0.4790 -0.8305 0.2842
vn -0.7467 -0.6649 -0.0189
vn -0.6361 -0.7577 -0.1460
vn -0.0000 -0.9767 -0.2148
vn -0.0000 -0.8191 0.5736
vn -0.0000 -0.3785 -0.9256
vn 0.6929 -0.4752 -0.5424
vn 0.8847 -0.4203 0.2018
vn -0.0000 -0.7344 0.6788
vn 0.9146 -0.4042 0.0063
vn -0.7049 -0.0069 0.7093
vn -0.6328 0.2854 0.7198
vn -0.5482 0.7890 -0.2775
vn -0.6591 -0.1138 -0.7434
vn -0.0000 -0.0098 1.0000
vn -0.0000 0.3686 0.9296
vn -0.0000 0.9434 -0.3318
vn -0.0000 -0.1513 -0.9885
vn -0.0000 -0.5532 -0.8330
vn -0.6689 -0.4193 -0.6137
vn -0.0000 -0.9164 -0.4002
vn -0.6280 -0.7173 -0.3020
vn -0.8091 0.2087 0.5493
vn -0.0000 0.3785 0.9256
vn -0.0000 0.9163 0.4006
vn -0.7960 0.5476 0.2580
vn -0.7153 0.6987 0.0112
vn -0.0000 0.9999 0.0122
vn -0.6982 -0.7159 -0.0040
vn -0.0000 -1.0000 -0.0088
vn -0.0000 -0.6416 0.7671
vn -0.5710 -0.5267 0.6298
vn -0.0000 0.7670 0.6417
vn -0.5844 0.6224 0.5207
vn -0.0347 -0.0000 0.9994
vn -0.0000 1.0000 -0.0000
vn 0.0347 -0.0000 0.9994
vn -0.0000 -0.0000 -1.0000
vn -0.0000 -0.0000 1.0000
vn -0.9004 -0.3844 0.2039
vn -0.8203 0.5453 0.1724
vn -0.8084 0.5885 0.0135
vn -0.9138 -0.4062 0.0060
vn 0.7370 -0.5682 0.3661
vn 0.6275 0.5836 0.5155
vn 0.7562 -0.6542 -0.0098
vn 0.7312 -0.6583 -0.1789
vn 0.7498 0.6295 -0.2039
vn 0.6885 0.7252 -0.0063
vn 0.6663 -0.7450 -0.0316
vn 0.6637 -0.7311 -0.1583
vn 0.9514 -0.2078 -0.2272
vn 0.9884 -0.1482 -0.0320
vn 0.6610 -0.7137 0.2318
vn 0.8325 -0.2556 0.4915
vn -0.7491 0.4665 -0.4703
vn -0.7392 -0.3773 -0.5579
vn -0.4126 0.8681 -0.2758
vn -0.7065 0.7077 -0.0000
vn -0.6250 0.7682 0.1391
vn 0.4790 -0.8305 0.2842
vn 0.7467 -0.6649 -0.0189
vn 0.6361 -0.7577 -0.1460
vn -0.6929 -0.4752 -0.5424
vn -0.8847 -0.4203 0.2018
vn -0.9146 -0.4042 0.0063
vn 0.7049 -0.0069 0.7093
vn 0.6591 -0.1138 -0.7434
vn 0.5482 0.7890 -0.2775
vn 0.6328 0.2854 0.7198
vn 0.6689 -0.4193 -0.6137
vn 0.6279 -0.7173 -0.3020
vn 0.8091 0.2087 0.5493
vn 0.7153 0.6987 0.0112
vn 0.7960 0.5476 0.2580
vn 0.6982 -0.7159 -0.0040
vn 0.5710 -0.5267 0.6298
vn 0.5844 0.6224 0.5207
vt 0.355653 0.722148
vt 0.355653 0.485818
vt 0.380300 0.485818
vt 0.380300 0.722148
vt 0.215480 0.025685
vt 0.254698 0.021076
vt 0.254698 0.181210
vt 0.215480 0.184163
vt 0.215480 0.490023
vt 0.254698 0.489318
vt 0.254698 0.752581
vt 0.215480 0.746789
vt 0.097720 0.493588
vt 0.147305 0.490976
vt 0.147305 0.703997
vt 0.097720 0.688346
vt 0.254698 0.977191
vt 0.215480 0.973120
vt 0.030069 0.499517
vt 0.030069 0.188870
vt 0.097720 0.243269
vt 0.147305 0.925678
vt 0.030069 0.811555
vt 0.147305 0.077291
vt 0.147305 0.215201
vt 0.355653 0.133730
vt 0.380300 0.133730
vt 0.300748 0.019012
vt 0.300748 0.179886
vt 0.300748 0.488415
vt 0.300748 0.755349
vt 0.300748 0.979108
vt 0.474758 0.485818
vt 0.474758 0.022402
vt 0.474758 0.977513
vt 0.355653 0.977513
vt 0.355653 0.022402
vt 0.198620 0.194474
vt 0.198620 0.490535
vt 0.198620 0.728402
vt 0.198620 0.959604
vt 0.198620 0.040249
vt 0.335970 0.019012
vt 0.335970 0.179886
vt 0.335970 0.755349
vt 0.335970 0.979108
vt 0.335970 0.487765
vt 0.347665 0.133730
vt 0.347665 0.022402
vt 0.347665 0.977513
vt 0.347665 0.722148
vt 0.347665 0.485818
vt 0.556583 0.906363
vt 0.556583 0.924400
vt 0.524737 0.924400
vt 0.524737 0.906363
vt 0.579883 0.906363
vt 0.579883 0.959779
vt 0.503436 0.959779
vt 0.503436 0.906363
vt 0.503436 0.853417
vt 0.524737 0.853417
vt 0.503436 0.702021
vt 0.524737 0.702021
vt 0.556583 0.853417
vt 0.579883 0.853417
vt 0.579883 0.702021
vt 0.556583 0.702021
vt 0.556583 0.320718
vt 0.579883 0.320718
vt 0.524737 0.320718
vt 0.503436 0.320718
vt 0.503436 0.022525
vt 0.524737 0.041239
vt 0.579883 0.022525
vt 0.556583 0.041239
vt 0.789621 0.327779
vt 0.789622 0.170114
vt 0.940535 0.169478
vt 0.940535 0.327143
vt 0.789622 0.089120
vt 0.940535 0.159088
vt 0.789592 0.327779
vt 0.638649 0.327143
vt 0.638649 0.169478
vt 0.789533 0.170114
vt 0.789592 0.089120
vt 0.638649 0.159088
vt 0.651438 0.866782
vt 0.651438 0.776406
vt 0.921748 0.776406
vt 0.921748 0.866782
vt 0.921748 0.595655
vt 0.921748 0.686030
vt 0.651438 0.686030
vt 0.651438 0.595655
vt 0.788289 0.243650
vt 0.788289 0.171527
vt 0.939974 0.171611
vt 0.939974 0.243650
vt 0.632530 0.170868
vt 0.632530 0.089886
vt 0.788289 0.089886
vt 0.939974 0.089886
vt 0.632530 0.243650
s 1
usemtl Material
f 45/1/1 47/2/2 25/3/3 27/4/4
f 30/5/5 10/6/6 17/7/7 28/8/8
f 32/9/9 19/10/10 20/11/11 31/12/12
f 13/13/13 15/14/14 3/15/15 6/16/16
f 31/12/12 20/11/11 12/17/17 29/18/18
f 13/13/13 16/19/19 11/20/20 8/21/21
f 6/16/16 3/15/15 2/22/22 9/23/23
f 11/20/20 1/24/24 4/25/25 8/21/21
f 6/16/16 9/23/23 16/19/19 13/13/13
f 8/21/21 4/25/25 15/14/14 13/13/13
f 28/8/8 17/7/7 19/10/10 32/9/9
f 47/2/2 43/26/26 26/27/27 25/3/3
f 18/28/28 7/29/29 17/7/7 10/6/6
f 14/30/30 5/31/31 20/11/11 19/10/10
f 5/31/31 21/32/32 12/17/17 20/11/11
f 7/29/29 14/30/30 19/10/10 17/7/7
f 22/33/33 25/3/3 26/27/27 23/34/34
f 24/35/35 27/4/4 25/3/3 22/33/33
f 46/36/36 45/1/1 27/4/4 24/35/35
f 43/26/26 44/37/37 23/34/34 26/27/27
f 37/38/38 28/8/8 32/9/9 36/39/39
f 35/40/40 31/12/12 29/18/18 33/41/41
f 36/39/39 32/9/9 31/12/12 35/40/40
f 34/42/42 30/5/5 28/8/8 37/38/38
f 1/24/24 34/42/42 37/38/38 4/25/25
f 15/14/14 36/39/39 35/40/40 3/15/15
f 3/15/15 35/40/40 33/41/41 2/22/22
f 4/25/25 37/38/38 36/39/39 15/14/14
f 7/29/29 18/28/28 42/43/43 40/44/44
f 21/32/32 5/31/31 38/45/45 39/46/46
f 14/30/30 7/29/29 40/44/44 41/47/47
f 5/31/31 14/30/30 41/47/47 38/45/45
f 40/48/44 42/49/43 44/37/37 43/26/26
f 39/50/46 38/51/45 45/1/1 46/36/36
f 41/52/47 40/48/44 43/26/26 47/2/2
f 38/51/45 41/52/47 47/2/2 45/1/1
f 48/53/48 49/54/49 51/55/50 50/56/51
f 54/57/52 55/58/53 49/54/49 48/53/48
f 53/59/54 51/55/50 49/54/49 55/58/53
f 50/56/51 52/60/55 58/61/56 56/62/57
f 50/56/51 51/55/50 53/59/54 52/60/55
f 56/62/57 58/61/56 62/63/58 60/64/59
f 48/53/48 50/56/51 56/62/57 57/65/60
f 54/57/52 48/53/48 57/65/60 59/66/61
f 63/67/62 61/68/63 65/69/64 67/70/65
f 59/66/61 57/65/60 61/68/63 63/67/62
f 57/65/60 56/62/57 60/64/59 61/68/63
f 64/71/66 66/72/67 70/73/68 68/74/69
f 61/68/63 60/64/59 64/71/66 65/69/64
f 60/64/59 62/63/58 66/72/67 64/71/66
f 68/74/69 70/73/68 71/75/70 69/76/71
f 67/70/65 65/69/64 69/76/71 71/75/70
f 65/69/64 64/71/66 68/74/69 69/76/71
s 0
f 76/77/72 77/78/72 73/79/72 72/80/72
f 75/81/73 74/82/73 73/79/73 77/78/73
f 82/83/74 78/84/74 79/85/74 83/86/74
f 81/87/73 83/86/73 79/85/73 80/88/73
f 86/89/75 87/90/75 91/91/75 90/92/75
f 88/93/76 89/94/76 85/95/76 84/96/76
f 91/91/73 87/90/73 85/95/73 89/94/73
f 94/89/75 95/90/75 99/91/75 98/92/75
f 96/93/76 97/94/76 93/95/76 92/96/76
f 99/91/73 95/90/73 93/95/73 97/94/73
f 106/97/75 107/98/75 105/99/75 104/100/75
f 107/98/73 102/101/73 100/102/73 108/103/73
f 105/99/73 107/98/73 108/103/73 103/104/73
f 101/105/75 102/101/75 107/98/75 106/97/75
s 1
f 134/1/77 123/4/78 121/3/79 135/2/80
f 30/5/5 124/8/81 118/7/82 10/6/6
f 126/9/83 125/12/84 120/11/85 119/10/86
f 115/13/87 112/16/88 109/15/89 117/14/90
f 125/12/84 29/18/18 12/17/17 120/11/85
f 115/13/87 114/21/91 11/20/20 16/19/19
f 112/16/88 9/23/23 2/22/22 109/15/89
f 11/20/20 114/21/91 110/25/92 1/24/24
f 112/16/88 115/13/87 16/19/19 9/23/23
f 114/21/91 115/13/87 117/14/90 110/25/92
f 124/8/81 126/9/83 119/10/86 118/7/82
f 135/2/80 121/3/79 122/27/93 133/26/94
f 18/28/28 10/6/6 118/7/82 113/29/95
f 116/30/96 119/10/86 120/11/85 111/31/97
f 111/31/97 120/11/85 12/17/17 21/32/32
f 113/29/95 118/7/82 119/10/86 116/30/96
f 22/33/33 23/34/34 122/27/93 121/3/79
f 24/35/35 22/33/33 121/3/79 123/4/78
f 46/36/36 24/35/35 123/4/78 134/1/77
f 133/26/94 122/27/93 23/34/34 44/37/37
f 129/38/98 128/39/99 126/9/83 124/8/81
f 127/40/100 33/41/41 29/18/18 125/12/84
f 128/39/99 127/40/100 125/12/84 126/9/83
f 34/42/42 129/38/98 124/8/81 30/5/5
f 1/24/24 110/25/92 129/38/98 34/42/42
f 117/14/90 109/15/89 127/40/100 128/39/99
f 109/15/89 2/22/22 33/41/41 127/40/100
f 110/25/92 117/14/90 128/39/99 129/38/98
f 113/29/95 131/44/101 42/43/43 18/28/28
f 21/32/32 39/46/46 130/45/102 111/31/97
f 116/30/96 132/47/103 131/44/101 113/29/95
f 111/31/97 130/45/102 132/47/103 116/30/96
f 131/48/101 133/26/94 44/37/37 42/49/43
f 39/50/46 46/36/36 134/1/77 130/51/102
f 132/52/103 135/2/80 133/26/94 131/48/101
f 130/51/102 134/1/77 135/2/80 132/52/103
f 136/53/104 138/56/105 139/55/106 137/54/107
f 54/57/52 136/53/104 137/54/107 55/58/53
f 53/59/54 55/58/53 137/54/107 139/55/106
f 138/56/105 140/62/108 58/61/56 52/60/55
f 138/56/105 52/60/55 53/59/54 139/55/106
f 140/62/108 142/64/109 62/63/58 58/61/56
f 136/53/104 141/65/110 140/62/108 138/56/105
f 54/57/52 59/66/61 141/65/110 136/53/104
f 63/67/62 67/70/65 145/69/111 143/68/112
f 59/66/61 63/67/62 143/68/112 141/65/110
f 141/65/110 143/68/112 142/64/109 140/62/108
f 144/71/113 146/74/114 70/73/68 66/72/67
f 143/68/112 145/69/111 144/71/113 142/64/109
f 142/64/109 144/71/113 66/72/67 62/63/58
f 146/74/114 147/76/115 71/75/70 70/73/68
f 67/70/65 71/75/70 147/76/115 145/69/111
f 145/69/111 147/76/115 146/74/114 144/71/113
s 0
f 152/77/74 148/80/74 149/79/74 153/78/74
f 151/81/73 153/78/73 149/79/73 150/82/73
f 158/83/72 159/86/72 155/85/72 154/84/72
f 157/87/73 156/88/73 155/85/73 159/86/73
f 162/89/75 166/92/75 167/91/75 163/90/75
f 164/93/76 160/96/76 161/95/76 165/94/76
f 167/91/73 165/94/73 161/95/73 163/90/73
f 170/89/75 174/92/75 175/91/75 171/90/75
f 172/93/76 168/96/76 169/95/76 173/94/76
f 175/91/73 173/94/73 169/95/73 171/90/73
f 106/97/75 180/100/75 181/99/75 107/98/75
f 107/98/73 108/103/73 176/102/73 178/101/73
f 181/99/73 179/104/73 108/103/73 107/98/73
f 177/105/75 106/97/75 107/98/75 178/101/75
o dayung
v -0.652979 1.055659 2.120989
v -0.652979 1.126171 2.120989
v 1.689384 1.055659 0.275046
v 1.689384 1.126171 0.275046
v -0.571047 1.055659 2.224955
v -0.571047 1.126171 2.224955
v 1.771317 1.055659 0.379012
v 1.771317 1.126171 0.379012
v -1.075923 1.055659 1.862385
v -1.075923 1.126171 1.862385
v -0.418478 1.126171 2.696633
v -0.418478 1.055659 2.696633
v -2.167823 1.055659 2.722877
v -2.167823 1.126171 2.722877
v -1.510378 1.126171 3.557125
v -1.510378 1.055659 3.557125
v -2.166533 1.055659 2.843747
v -2.166533 1.126171 2.843747
v -1.627599 1.126171 3.527615
v -1.627599 1.055659 3.527615
vn -0.6190 -0.0000 -0.7854
vn 0.7854 -0.0000 -0.6190
vn 0.6190 -0.0000 0.7854
vn -0.0000 1.0000 -0.0000
vn -0.0000 -1.0000 -0.0000
vn 0.9515 -0.0000 -0.3078
vn 0.5217 -0.0000 -0.8532
vn -0.7854 -0.0000 0.6190
vn -0.9999 -0.0000 0.0107
vn -0.2441 -0.0000 0.9697
vt 0.846842 0.463847
vt 0.848758 0.471075
vt 0.628013 0.358416
vt 0.623869 0.350051
vt 0.620177 0.373769
vt 0.610760 0.375736
vt 0.840923 0.486428
vt 0.835311 0.490338
vt 0.883097 0.448367
vt 0.843276 0.526393
vt 0.977723 0.496660
vt 0.937902 0.574686
vt 0.836420 0.529807
vt 0.884489 0.442235
vt 0.980436 0.506075
vt 0.947502 0.570605
vt 0.935933 0.580090
vt 0.986058 0.494072
vt 0.951443 0.577248
vt 0.987402 0.506791
s 0
usemtl Material
f 182/106/116 183/107/116 185/108/116 184/109/116
f 184/109/117 185/108/117 189/110/117 188/111/117
f 188/111/118 189/110/118 187/112/118 186/113/118
f 187/112/119 183/107/119 191/114/119 192/115/119
f 184/110/120 188/108/120 186/107/120 182/112/120
f 189/110/119 185/108/119 183/107/119 187/112/119
f 192/115/119 191/114/119 195/116/119 196/117/119
f 186/113/121 187/112/121 192/115/121 193/118/121
f 183/107/122 182/106/122 190/119/122 191/114/122
f 182/112/120 186/107/120 193/114/120 190/115/120
f 194/117/120 197/116/120 201/120/120 198/121/120
f 193/118/118 192/115/118 196/117/118 197/122/118
f 190/115/120 193/114/120 197/116/120 194/117/120
f 191/114/116 190/119/116 194/123/116 195/116/116
f 201/124/123 200/121/123 199/120/123 198/125/123
f 195/116/124 194/123/124 198/125/124 199/120/124
f 196/117/119 195/116/119 199/120/119 200/121/119
f 197/122/125 196/117/125 200/121/125 201/124/125
o dayung2
v -0.760760 1.055659 -1.392916
v -0.760760 1.126171 -1.392916
v 2.177406 1.055659 -0.881690
v 2.177406 1.126171 -0.881690
v -0.783451 1.055659 -1.262505
v -0.783451 1.126171 -1.262505
v 2.154715 1.055659 -0.751279
v 2.154715 1.126171 -0.751279
v -0.850641 1.055659 -1.880439
v -0.850641 1.126171 -1.880439
v -1.032718 1.126171 -0.833992
v -1.032718 1.055659 -0.833992
v -2.220277 1.055659 -2.118748
v -2.220277 1.126171 -2.118748
v -2.402353 1.126171 -1.072301
v -2.402353 1.055659 -1.072301
v -2.309396 1.055659 -2.037084
v -2.309396 1.126171 -2.037084
v -2.458652 1.126171 -1.179268
v -2.458652 1.055659 -1.179268
vn 0.1714 -0.0000 -0.9852
vn 0.9852 -0.0000 0.1714
vn -0.1714 -0.0000 0.9852
vn -0.0000 1.0000 -0.0000
vn -0.0000 -1.0000 -0.0000
vn 0.8644 -0.0000 0.5028
vn 0.9834 -0.0000 -0.1813
vn -0.9852 -0.0000 -0.1714
vn -0.6756 -0.0000 -0.7373
vn -0.8849 -0.0000 0.4658
vt 0.846842 0.463847
vt 0.848758 0.471075
vt 0.628013 0.358416
vt 0.623869 0.350051
vt 0.620177 0.373769
vt 0.610760 0.375736
vt 0.840923 0.486428
vt 0.835311 0.490338
vt 0.883097 0.448367
vt 0.843276 0.526393
vt 0.977723 0.496660
vt 0.937902 0.574686
vt 0.836420 0.529807
vt 0.884489 0.442235
vt 0.980436 0.506075
vt 0.947502 0.570605
vt 0.935933 0.580090
vt 0.986058 0.494072
vt 0.951443 0.577248
vt 0.987402 0.506791
s 0
usemtl Material
f 202/126/126 203/127/126 205/128/126 204/129/126
f 204/129/127 205/128/127 209/130/127 208/131/127
f 208/131/128 209/130/128 207/132/128 206/133/128
f 207/132/129 203/127/129 211/134/129 212/135/129
f 204/130/130 208/128/130 206/127/130 202/132/130
f 209/130/129 205/128/129 203/127/129 207/132/129
f 212/135/129 211/134/129 215/136/129 216/137/129
f 206/133/131 207/132/131 212/135/131 213/138/131
f 203/127/132 202/126/132 210/139/132 211/134/132
f 202/132/130 206/127/130 213/134/130 210/135/130
f 214/137/130 217/136/130 221/140/130 218/141/130
f 213/138/128 212/135/128 216/137/128 217/142/128
f 210/135/130 213/134/130 217/136/130 214/137/130
f 211/134/126 210/139/126 214/143/126 215/136/126
f 221/144/133 220/141/133 219/140/133 218/145/133
f 215/136/134 214/143/134 218/145/134 219/140/134
f 216/137/129 215/136/129 219/140/129 220/141/129
f 217/142/135 216/137/135 220/141/135 221/144/135
